<svg width="27" height="27" viewBox="0 0 27 27" fill="none" xmlns="http://www.w3.org/2000/svg">
<path d="M18.5625 6.75V7.59375M18.5625 10.9688V11.8125M18.5625 15.1875V16.0312M18.5625 19.4062V20.25M8.4375 14.3438H14.3438M8.4375 16.875H11.8125M3.79688 5.90625C3.09825 5.90625 2.53125 6.47325 2.53125 7.17188V10.5761C3.04509 10.872 3.47189 11.298 3.76866 11.8113C4.06543 12.3246 4.22168 12.9071 4.22168 13.5C4.22168 14.0929 4.06543 14.6754 3.76866 15.1887C3.47189 15.702 3.04509 16.128 2.53125 16.4239V19.8281C2.53125 20.5267 3.09825 21.0938 3.79688 21.0938H23.2031C23.9017 21.0938 24.4688 20.5267 24.4688 19.8281V16.4239C23.9549 16.128 23.5281 15.702 23.2313 15.1887C22.9346 14.6754 22.7783 14.0929 22.7783 13.5C22.7783 12.9071 22.9346 12.3246 23.2313 11.8113C23.5281 11.298 23.9549 10.872 24.4688 10.5761V7.17188C24.4688 6.47325 23.9017 5.90625 23.2031 5.90625H3.79688Z" stroke="white" stroke-width="1.5" stroke-linecap="round" stroke-linejoin="round"/>
</svg>
