<svg width="23" height="25" viewBox="0 0 23 25" fill="none" xmlns="http://www.w3.org/2000/svg">
<path d="M10.8017 2.76555C10.9944 2.59448 11.243 2.5 11.5007 2.5C11.7583 2.5 12.007 2.59448 12.1997 2.76555L21.6737 11.1869C21.8718 11.3751 21.9889 11.6328 22.0004 11.9057C22.012 12.1786 21.917 12.4453 21.7355 12.6495C21.554 12.8537 21.3003 12.9793 21.0279 12.9998C20.7555 13.0204 20.4858 12.9342 20.2758 12.7596L19.9221 12.447V20.3947C19.9221 20.953 19.7003 21.4885 19.3054 21.8834C18.9106 22.2782 18.3751 22.5 17.8167 22.5H5.18465C4.62628 22.5 4.09078 22.2782 3.69595 21.8834C3.30112 21.4885 3.07931 20.953 3.07931 20.3947V12.447L2.72561 12.7596C2.51556 12.9342 2.24586 13.0204 1.97348 12.9998C1.7011 12.9793 1.44737 12.8537 1.2659 12.6495C1.08442 12.4453 0.989413 12.1786 1.00094 11.9057C1.01246 11.6328 1.12962 11.3751 1.32766 11.1869L10.8017 2.76555ZM5.18465 10.5732V20.3947H8.34267V15.1313C8.34267 14.8521 8.45358 14.5844 8.65099 14.3869C8.84841 14.1895 9.11616 14.0786 9.39534 14.0786H13.606C13.8852 14.0786 14.153 14.1895 14.3504 14.3869C14.5478 14.5844 14.6587 14.8521 14.6587 15.1313V20.3947H17.8167V10.5743L11.5007 4.96038L5.18465 10.5732ZM12.5534 20.3947V16.184H10.448V20.3947H12.5534Z" fill="black"/>
</svg>
