<svg width="25" height="25" viewBox="0 0 25 25" fill="none" xmlns="http://www.w3.org/2000/svg">
<path d="M5.31776 19.9384C5.92609 18.5052 7.34639 17.5 9.00146 17.5H15.0015C16.6565 17.5 18.0768 18.5052 18.6852 19.9384M16.0015 10C16.0015 12.2091 14.2106 14 12.0015 14C9.79233 14 8.00146 12.2091 8.00146 10C8.00146 7.79086 9.79233 6 12.0015 6C14.2106 6 16.0015 7.79086 16.0015 10ZM22.0015 12.5C22.0015 18.0228 17.5243 22.5 12.0015 22.5C6.47862 22.5 2.00146 18.0228 2.00146 12.5C2.00146 6.97715 6.47862 2.5 12.0015 2.5C17.5243 2.5 22.0015 6.97715 22.0015 12.5Z" stroke="white" stroke-width="2" stroke-linecap="round" stroke-linejoin="round"/>
</svg>
